<svg width="26" height="11" viewBox="0 0 30 15" fill="none" xmlns="http://www.w3.org/2000/svg">
<path fill-rule="evenodd" clip-rule="evenodd" d="M4.9451 4.58973C7.0843 6.89787 10.3497 9.14548 15 9.14548C19.6503 9.14548 22.9157 6.89787 25.0549 4.58972C26.1252 3.43489 26.9008 2.27675 27.4082 1.40726C27.6613 0.973481 27.8461 0.614243 27.9662 0.366891C28.0262 0.243293 28.0699 0.147869 28.0978 0.0853173C28.1118 0.0540487 28.1218 0.031019 28.1279 0.0168164L28.1341 0.00221594L28.1347 0.000664392C28.1346 0.000971968 28.1345 0.00131667 29.0674 0.363704C30.0004 0.726092 30.0002 0.726511 30 0.726968L29.9995 0.728068L29.9983 0.730938L29.9948 0.739337L29.9833 0.766575C29.9735 0.789296 29.9597 0.821057 29.9418 0.861255C29.9059 0.941635 29.8535 1.05585 29.784 1.19906C29.645 1.48532 29.4373 1.88839 29.1566 2.36938C28.5964 3.32942 27.7391 4.61066 26.5486 5.89521C26.1811 6.29175 25.7806 6.68973 25.3462 7.07927L28.7731 10.407L27.3521 11.7869L23.7853 8.32334C21.76 9.74843 19.1851 10.8688 16.0048 11.0661L16.0048 15L13.9952 15L13.9952 11.0661C10.8149 10.8688 8.24002 9.74844 6.21467 8.32336L2.64792 11.7869L1.2269 10.407L4.65374 7.07929C4.21937 6.68974 3.81887 6.29176 3.45135 5.89521C2.26083 4.61066 1.40361 3.32942 0.843387 2.36937C0.562708 1.88838 0.355008 1.48531 0.216037 1.19905C0.146514 1.05584 0.0940777 0.941631 0.0582089 0.86125C0.0402712 0.821053 0.0264662 0.789291 0.0167295 0.76657L0.00516368 0.739333L0.00165146 0.730933L0.000460155 0.728063L5.33787e-06 0.726963C-0.000182902 0.726507 -0.000355637 0.726088 0.932593 0.363704C1.86554 0.00132144 1.8654 0.000976737 1.86527 0.000669161L1.86509 0.000237124L1.86592 0.00222065L1.87213 0.016821C1.87821 0.0310236 1.8882 0.0540534 1.90216 0.0853219C1.93007 0.147874 1.9738 0.243297 2.0338 0.366896C2.15388 0.614247 2.33869 0.973485 2.59181 1.40726C3.0992 2.27675 3.8748 3.43489 4.9451 4.58973ZM1.86501 3.0222e-05C1.86498 -4.62576e-05 1.865 2.23123e-05 1.86509 0.000237124Z" fill="#FF868E"/>
</svg>
