<svg width="26" height="26" viewBox="0 0 30 30" fill="none" xmlns="http://www.w3.org/2000/svg">
<path fill-rule="evenodd" clip-rule="evenodd" d="M2.09439 15C2.0949 15.0011 2.09542 15.0022 2.09593 15.0033C2.21544 15.2568 2.39935 15.6249 2.65127 16.0695C3.15622 16.9606 3.92811 18.1475 4.99328 19.331C7.12223 21.6965 10.3719 24 15 24C19.628 24 22.8777 21.6965 25.0067 19.331C26.0719 18.1475 26.8438 16.9606 27.3487 16.0695C27.6006 15.6249 27.7846 15.2568 27.9041 15.0033C27.9046 15.0022 27.9051 15.0011 27.9056 15C27.9051 14.9989 27.9046 14.9978 27.9041 14.9967C27.7846 14.7432 27.6006 14.3751 27.3487 13.9305C26.8438 13.0394 26.0719 11.8525 25.0067 10.669C22.8777 8.30346 19.628 6 15 6C10.3719 6 7.12223 8.30346 4.99328 10.669C3.92811 11.8525 3.15622 13.0394 2.65127 13.9305C2.39935 14.3751 2.21544 14.7432 2.09593 14.9967C2.09542 14.9978 2.0949 14.9989 2.09439 15ZM29 15C29.9285 14.6286 29.9283 14.6282 29.9281 14.6277L29.9277 14.6266L29.9265 14.6236L29.923 14.615L29.9115 14.5871C29.9018 14.5638 29.888 14.5313 29.8702 14.4901C29.8345 14.4077 29.7823 14.2907 29.7131 14.1439C29.5748 13.8505 29.3681 13.4374 29.0888 12.9445C28.5312 11.9606 27.6781 10.6475 26.4933 9.33103C24.1222 6.69654 20.3719 4 15 4C9.62799 4 5.87773 6.69654 3.50669 9.33104C2.32187 10.6475 1.46876 11.9606 0.911222 12.9445C0.631888 13.4374 0.425184 13.8505 0.286878 14.1439C0.217688 14.2907 0.165503 14.4077 0.129806 14.4901C0.111955 14.5313 0.0982156 14.5638 0.0885257 14.5871L0.0770152 14.615L0.0735198 14.6236L0.0723342 14.6266L0.0718816 14.6277C0.0716943 14.6282 0.0715224 14.6286 1 15L0.0715224 14.6286C-0.0238408 14.867 -0.0238408 15.133 0.0715224 15.3714L1 15C0.0715224 15.3714 0.0716943 15.3718 0.0718816 15.3723L0.0723342 15.3734L0.0735198 15.3764L0.0770152 15.385L0.0885257 15.4129C0.0982156 15.4362 0.111955 15.4687 0.129806 15.5099C0.165503 15.5923 0.217688 15.7093 0.286878 15.8561C0.425184 16.1495 0.631888 16.5626 0.911222 17.0555C1.46876 18.0394 2.32187 19.3525 3.50669 20.669C5.87773 23.3035 9.62799 26 15 26C20.3719 26 24.1222 23.3035 26.4933 20.669C27.6781 19.3525 28.5312 18.0394 29.0888 17.0555C29.3681 16.5626 29.5748 16.1495 29.7131 15.8561C29.7823 15.7093 29.8345 15.5923 29.8702 15.5099C29.888 15.4687 29.9018 15.4362 29.9115 15.4129L29.923 15.385L29.9265 15.3764L29.9277 15.3734L29.9281 15.3723C29.9283 15.3718 29.9285 15.3714 29 15ZM29 15L29.9285 15.3714C30.0238 15.133 30.0238 14.867 29.9285 14.6286L29 15ZM10 15C10 12.2386 12.2386 10 15 10C17.7614 10 20 12.2386 20 15C20 17.7614 17.7614 20 15 20C12.2386 20 10 17.7614 10 15ZM15 12C13.3431 12 12 13.3431 12 15C12 16.6569 13.3431 18 15 18C16.6569 18 18 16.6569 18 15C18 13.3431 16.6569 12 15 12Z" fill="#FF868E"/>
</svg>
